<svg version="1.2" xmlns="http://www.w3.org/2000/svg" viewBox="0 0 70 70" width="30" height="30"><defs><linearGradient id="P" gradientUnits="userSpaceOnUse"/><linearGradient id="g1" x1="46.6" y1="43.9" x2="23.8" y2="17.2" href="#P"><stop stop-color="#fff" stop-opacity="0"/><stop offset="1" stop-color="#fff"/></linearGradient><linearGradient id="g2" x1="20.5" y1="58.3" x2="15.1" y2="53.1" href="#P"><stop stop-color="#fff" stop-opacity="0"/><stop offset="1" stop-color="#fff"/></linearGradient><linearGradient id="g3" x1="38.7" y1="55.1" x2="33.1" y2="50" href="#P"><stop stop-color="#fff" stop-opacity="0"/><stop offset="1" stop-color="#fff"/></linearGradient><linearGradient id="g4" x1="49.9" y1="43.8" x2="44.1" y2="39.2" href="#P"><stop stop-color="#fff" stop-opacity="0"/><stop offset="1" stop-color="#fff"/></linearGradient><linearGradient id="g5" x1="54.4" y1="29.9" x2="49.1" y2="25.5" href="#P"><stop stop-color="#fff" stop-opacity="0"/><stop offset="1" stop-color="#fff"/></linearGradient><linearGradient id="g6" x1="46.3" y1="15.4" x2="41" y2="10.8" href="#P"><stop stop-color="#fff" stop-opacity="0"/><stop offset="1" stop-color="#fff"/></linearGradient><radialGradient id="g7" cx="16.4" cy="4.3" r="7.4" href="#P"><stop stop-color="#f1edeb"/><stop offset=".7" stop-color="#d9d2cc"/><stop offset="1" stop-color="#958a81"/></radialGradient><linearGradient id="g8" x1="15.5" y1="7.4" x2="7.8" y2="1.7" href="#P"><stop stop-color="#b3a8a1"/><stop offset="1" stop-color="#c9c1bb"/></linearGradient><linearGradient id="g9" x1="12.1" y1="2.9" x2="17" y2="7.9" href="#P"><stop stop-color="#fff"/><stop offset=".3" stop-color="#e3dfdc"/><stop offset=".7" stop-color="#d9d3cd"/><stop offset="1" stop-color="#a19891"/></linearGradient><linearGradient id="g10" x1="14.6" y1="5.5" x2="22.9" y2="11.8" href="#P"><stop stop-color="#e3e7e9"/><stop offset=".1" stop-color="#abb3ba"/><stop offset=".2" stop-color="#8e96a0"/><stop offset=".3" stop-color="#a5acb4"/><stop offset=".5" stop-color="#68727f"/><stop offset=".7" stop-color="#b0b7be"/><stop offset=".9" stop-color="#595f67"/><stop offset="1" stop-color="#89929b"/></linearGradient><linearGradient id="g11" x1="16.2" y1="6" x2="24" y2="11.9" href="#P"><stop stop-color="#76808c"/><stop offset=".1" stop-color="#fff"/><stop offset=".6" stop-color="#4c5761"/><stop offset=".9" stop-color="#fff"/><stop offset="1" stop-color="#818b95"/></linearGradient><linearGradient id="g12" x1="18.3" y1="7.5" x2="26.2" y2="13.5" href="#P"><stop stop-color="#e3e7e9"/><stop offset=".1" stop-color="#abb3ba"/><stop offset=".2" stop-color="#8e96a0"/><stop offset=".3" stop-color="#a5acb4"/><stop offset=".5" stop-color="#68727f"/><stop offset=".7" stop-color="#b0b7be"/><stop offset=".9" stop-color="#656c73"/><stop offset="1" stop-color="#a7b1bc"/></linearGradient><linearGradient id="g13" x1="18.4" y1="11" x2="26.3" y2="17" href="#P"><stop stop-color="#76808c"/><stop offset=".1" stop-color="#fff"/><stop offset=".6" stop-color="#4c5761"/><stop offset=".9" stop-color="#fff"/><stop offset="1" stop-color="#818b95"/></linearGradient><linearGradient id="g14" x1="19.1" y1="11.4" x2="27.4" y2="17.7" href="#P"><stop stop-color="#e3e7e9"/><stop offset=".1" stop-color="#abb3ba"/><stop offset=".2" stop-color="#8e96a0"/><stop offset=".3" stop-color="#a5acb4"/><stop offset=".5" stop-color="#727e89"/><stop offset=".7" stop-color="#b0b7be"/><stop offset=".8" stop-color="#89929b"/><stop offset=".9" stop-color="#d3d7da"/><stop offset="1" stop-color="#89929b"/></linearGradient><linearGradient id="g15" x1="20.8" y1="11.9" x2="28.5" y2="17.8" href="#P"><stop stop-color="#76808c"/><stop offset=".5" stop-color="#fafafb"/><stop offset=".9" stop-color="#818b95"/><stop offset="1" stop-color="#e0e2e6"/></linearGradient><linearGradient id="g16" x1="16.8" y1="18.2" x2="16.9" y2="17.7" href="#P"><stop stop-color="#fff"/><stop offset="1" stop-color="#56606c"/></linearGradient><linearGradient id="g17" x1="18" y1="18.1" x2="17.9" y2="18.4" href="#P"><stop stop-color="#fff"/><stop offset="1" stop-color="#56606c"/></linearGradient><linearGradient id="g18" x1="24.2" y1="12.6" x2="24.3" y2="12.1" href="#P"><stop stop-color="#fff"/><stop offset="1" stop-color="#56606c"/></linearGradient><linearGradient id="g19" x1="25.4" y1="12.5" x2="25.3" y2="12.8" href="#P"><stop stop-color="#fff"/><stop offset="1" stop-color="#56606c"/></linearGradient><linearGradient id="g20" x1="17.5" y1="16.2" x2="17.7" y2="15.5" href="#P"><stop stop-color="#fff"/><stop offset="1" stop-color="#4c5863"/></linearGradient><linearGradient id="g21" x1="19" y1="16" x2="18.9" y2="16.5" href="#P"><stop stop-color="#fff"/><stop offset="1" stop-color="#4c5863"/></linearGradient><linearGradient id="g22" x1="21.8" y1="13" x2="22" y2="12.3" href="#P"><stop stop-color="#fff"/><stop offset="1" stop-color="#4c5863"/></linearGradient><linearGradient id="g23" x1="23.3" y1="12.8" x2="23.1" y2="13.3" href="#P"><stop stop-color="#fff"/><stop offset="1" stop-color="#4c5863"/></linearGradient><linearGradient id="g24" x1="19.4" y1="14.3" x2="19.6" y2="13.6" href="#P"><stop stop-color="#fff"/><stop offset="1" stop-color="#2f3840"/></linearGradient><linearGradient id="g25" x1="21" y1="14.1" x2="20.8" y2="14.6" href="#P"><stop stop-color="#fff"/><stop offset="1" stop-color="#2f3840"/></linearGradient><linearGradient id="g26" x1="12.2" y1="12.3" x2="12.4" y2="11.7" href="#P"><stop stop-color="#fff"/><stop offset="1" stop-color="#56606c"/></linearGradient><linearGradient id="g27" x1="13.5" y1="12.2" x2="13.4" y2="12.5" href="#P"><stop stop-color="#fff"/><stop offset="1" stop-color="#56606c"/></linearGradient><linearGradient id="g28" x1="19.7" y1="6.7" x2="19.8" y2="6.2" href="#P"><stop stop-color="#fff"/><stop offset="1" stop-color="#56606c"/></linearGradient><linearGradient id="g29" x1="20.9" y1="6.6" x2="20.8" y2="6.9" href="#P"><stop stop-color="#fff"/><stop offset="1" stop-color="#56606c"/></linearGradient><linearGradient id="g30" x1="13" y1="10.3" x2="13.1" y2="9.6" href="#P"><stop stop-color="#fff"/><stop offset="1" stop-color="#4c5863"/></linearGradient><linearGradient id="g31" x1="14.4" y1="10.1" x2="14.3" y2="10.6" href="#P"><stop stop-color="#fff"/><stop offset="1" stop-color="#4c5863"/></linearGradient><linearGradient id="g32" x1="17.3" y1="7.1" x2="17.4" y2="6.4" href="#P"><stop stop-color="#fff"/><stop offset="1" stop-color="#4c5863"/></linearGradient><linearGradient id="g33" x1="18.7" y1="6.9" x2="18.6" y2="7.4" href="#P"><stop stop-color="#fff"/><stop offset="1" stop-color="#4c5863"/></linearGradient><linearGradient id="g34" x1="14.9" y1="8.4" x2="15.1" y2="7.7" href="#P"><stop stop-color="#fff"/><stop offset="1" stop-color="#2f3840"/></linearGradient><linearGradient id="g35" x1="16.4" y1="8.2" x2="16.3" y2="8.7" href="#P"><stop stop-color="#fff"/><stop offset="1" stop-color="#2f3840"/></linearGradient></defs><style>.a{fill:#e6c5a2}.b{opacity:.3;fill:#ae7172}.c{fill:url(#g1)}.d{opacity:.7;fill:#ffb300}.e{opacity:.2}.f{opacity:.7;fill:#ff8000}.g{opacity:.7;fill:#ff3a00}.h{opacity:.7;fill:#23b300}.i{opacity:.7;fill:#0002ff}.j{fill:url(#g2)}.k{fill:url(#g3)}.l{fill:url(#g4)}.m{fill:url(#g5)}.n{fill:url(#g6)}.o{fill:#8f8580}.p{fill:url(#g7)}.q{fill:url(#g8)}.r{fill:url(#g9)}.s{fill:#fff8e0}.t{fill:#fcf0d2}.u{fill:#fde2ad}.v{fill:#f9d87a}.w{fill:#f2cc67}.x{fill:#e5ba55}.y{fill:#d6a118}.z{fill:#d1990e}.A{fill:#c38e00}.B{fill:#ffe8a7}.C{fill:#fffbee}.D{fill:url(#g10)}.E{fill:url(#g11)}.F{fill:url(#g12)}.G{fill:url(#g13)}.H{fill:url(#g14)}.I{fill:url(#g15)}.J{fill:#cfd3d8}.K{fill:#fff}.L{fill:url(#g16)}.M{fill:url(#g17)}.N{fill:url(#g18)}.O{fill:url(#g19)}.P{fill:url(#g20)}.Q{fill:url(#g21)}.R{fill:url(#g22)}.S{fill:url(#g23)}.T{fill:url(#g24)}.U{fill:url(#g25)}.V{fill:url(#g26)}.W{fill:url(#g27)}.X{fill:url(#g28)}.Y{fill:url(#g29)}.Z{fill:url(#g30)}.a0{fill:url(#g31)}.a1{fill:url(#g32)}.a2{fill:url(#g33)}.a3{fill:url(#g34)}.a4{fill:url(#g35)}.a5{fill:#2d709b}.a6{fill:#98c5e2}.a7{fill:#1d4a67}.a8{fill:#266085}.a9{fill:#0e2433}.aa{fill:#0a1820}.ab{fill:#e7f2f8}.ac{fill:#4b99ca}.ad{fill:#132e40}.ae{fill:#88bcdc}.af{fill:#29658c}.ag{fill:#19415a}.ah{fill:#ebf5fa}.ai{fill:#56a0ce}.aj{fill:#15394f}.ak{fill:#3079a6}.al{fill:#102736}</style><path fill-rule="evenodd" class="a" d="m60 11.5c4 5.7 5.9 12.7 5.7 19.5-1 12.9-7.5 25.1-17.7 32.8-7.4 6.2-18.4 7.6-27.8 4.1-6.1-2.4-12.7-5.6-15.9-11.8-2.9-5.7-0.6-12.2 2.8-16.7 4.9-7.7 13.9-11 19.8-17.8 4.8-4.9 4.6-12.5 8.2-18.2 2.8-4.4 9.4-4.1 13.6-1.3 4.4 2.3 8.1 5.7 11.3 9.4z"/><path fill-rule="evenodd" class="b" d="m59.7 11.4c4.1 5.7 6 12.8 5.8 19.5-1.1 13-7.6 25.2-17.7 32.9-7.5 6.1-18.4 7.5-27.8 4.1-6.1-2.5-12.8-5.7-16-11.9-2.9-5.7-0.5-12.1 2.8-16.7 5-7.7 14-11 19.9-17.7 4.7-5 4.5-12.6 8.1-18.2 2.9-4.4 9.5-4.1 13.7-1.3q2.4 1.3 4.6 3c2.4 1.8 4.6 4 6.6 6.3zm-9.9-6.9c-2.8-1.9-6.5-3.6-9.8-2.5-2.6 0.9-3.6 3.7-4.5 6.1-1.8 4.9-2.9 10.5-6.7 14.4-5.8 6.3-13.9 10-19.1 16.9-2.5 3.4-4.5 7.7-3.8 12.2 0.9 4.4 4.6 7.6 8.3 9.8 4.2 2.4 8.8 4.2 13.5 4.8 8.1 0.9 16.2-1.9 21.6-7.5 8.5-7.7 13.9-18.8 14.1-30.5-0.1-6.2-2.1-12.6-6.3-17.5-1.6-1.7-3.4-3.3-5.3-4.8q-1-0.7-2-1.4z"/><path fill-rule="evenodd" class="c" d="m63.1 25.6c-8.6 3.2-17.1 7-24.8 11.8-8.1 4.9-15.3 11-21.8 17.8-1.9 1.7-3.4 3.9-5.6 5.3-2.6-1.9-5-4.6-5.8-7.8-0.9-4.2 0.3-8.5 2.5-11.8 4-5.5 9.5-9.5 14.5-13.9 3.7-2.9 6.9-6.5 8.9-10.8 1.8-3.7 2.6-7.9 4.9-11.4 1.2-2.2 3.6-3.4 6.1-3.2 3.6 0 6.8 2 9.5 4.2 6.5 4.6 10.8 12.1 11.6 19.8z"/><path fill-rule="evenodd" class="d" d="m44.1 9.9c10.2-0.8 10.8 7.1 4.7 9.4-12.2 1-11.8-6.8-4.7-9.4z"/><path fill-rule="evenodd" class="e" d="m48.9 19.4c-12.2 1-11.9-6.8-4.8-9.4 10.3-0.8 10.8 7.1 4.8 9.4zm-4.9-8.9c-2.6 0.4-5.9 4.1-3 6.5 3.2 1.2 8.5 2.5 10.3-1.8 1.2-3-2.6-4.9-5-4.7-0.8-0.1-1.5 0-2.3 0z"/><path fill-rule="evenodd" class="f" d="m51.9 24c10.5-0.7 11 6.8 4.9 9-12.4 1-12-6.4-4.9-9z"/><path fill-rule="evenodd" class="e" d="m56.9 33.1c-12.4 1-12.1-6.4-4.9-9 10.4-0.8 11 6.8 4.9 9zm-5-8.4c-2.6 0.3-6 3.9-3.1 6.2 3.3 1.1 8.6 2.3 10.5-1.7 1.2-2.9-2.7-4.8-5.1-4.6-0.8-0.1-1.5 0.1-2.3 0.1z"/><path fill-rule="evenodd" class="g" d="m47.1 38c11.6-0.8 12.2 7.1 5.4 9.4-13.7 1-13.3-6.8-5.4-9.4z"/><path fill-rule="evenodd" class="e" d="m52.6 47.5c-13.7 1-13.3-6.8-5.4-9.4 11.5-0.8 12.1 7.1 5.4 9.4zm-5.5-8.9c-2.9 0.4-6.6 4.1-3.4 6.5 3.6 1.3 9.5 2.5 11.5-1.7 1.4-3.1-2.9-5-5.6-4.8-0.8-0.1-1.7 0-2.5 0z"/><path fill-rule="evenodd" class="h" d="m35.9 48.6c10.9-1 11.5 7.9 5.1 10.4-13 1.2-12.6-7.5-5.1-10.4z"/><path fill-rule="evenodd" class="e" d="m41.1 59.2c-13 1.1-12.7-7.6-5.1-10.5 10.9-1 11.5 7.9 5.1 10.5zm-5.3-9.9c-2.7 0.4-6.2 4.5-3.2 7.2 3.5 1.4 9 2.7 11-2 1.3-3.3-2.8-5.5-5.3-5.3-0.8-0.1-1.7 0.1-2.5 0.1z"/><path fill-rule="evenodd" class="i" d="m18.1 51.3c10.5-0.9 11.1 8.1 4.9 10.7-12.6 1.2-12.2-7.7-4.9-10.7z"/><path fill-rule="evenodd" class="e" d="m23.1 62.1c-12.6 1.2-12.3-7.7-5-10.7 10.6-0.9 11.2 8.1 5 10.7zm-5.1-10c-2.6 0.4-6 4.6-3.1 7.3 3.3 1.4 8.7 2.8 10.6-2 1.3-3.4-2.7-5.6-5.1-5.4-0.8-0.1-1.6 0.1-2.4 0.1z"/><path fill-rule="evenodd" class="j" d="m20.3 52.3c0.8 5-0.3 8.8-4.6 7.7-2.9-1.2-1.6-5.3 0.5-6.5 1.3-0.9 2.6-1.5 4.1-1.2z"/><path fill-rule="evenodd" class="k" d="m38.5 49.3c0.8 4.8-0.4 8.6-4.8 7.5-3-1.1-1.7-5.1 0.5-6.4 1.4-0.9 2.7-1.4 4.3-1.1z"/><path fill-rule="evenodd" class="l" d="m49.8 38.6c0.8 4.3-0.5 7.7-5.1 6.7-3.2-1-1.8-4.6 0.5-5.7 1.5-0.8 2.9-1.3 4.6-1z"/><path fill-rule="evenodd" class="m" d="m54.2 24.8c0.8 4.2-0.3 7.4-4.5 6.5-2.9-1-1.7-4.4 0.4-5.5 1.4-0.7 2.6-1.2 4.1-1z"/><path fill-rule="evenodd" class="n" d="m46.1 10.2c0.8 4.3-0.3 7.7-4.5 6.8-2.8-1.1-1.6-4.7 0.5-5.8 1.3-0.8 2.5-1.3 4-1z"/><path class="o" d="m21.8 7.5l-8.3 6.4-3.3-4.4q-0.1-0.1-0.2-0.2c-0.9-1.3 0.1-3.7 2.4-5.4 2.3-1.8 5-2.1 6-0.8q0.1 0.1 0.1 0.1z"/><path class="p" d="m14.9 7.1c-2 1.4-3 3.5-2.8 4.9l-2.8-3.6c-1-1.3 0.1-3.8 2.4-5.5 2.3-1.7 5-2.1 6-0.8 0 0.1 2.7 3.6 2.7 3.6-1.3-0.5-3.6-0.1-5.5 1.4z"/><path class="q" d="m18.2 5.6c0 0-1.6-2.5-2.5-2.9-1.6-0.7-4.3 1.3-4.3 1.3 2.6-2.9 5.1-2.1 5.1-2.1 0 0 0.6 0 1.8 1.6 0.2 0.4 1.4 2 1.4 2z"/><path class="r" d="m11.8 11.2c0 0-1-1.5-1.3-1.8-1.3-1.5-1.1-2.2-1.1-2.2 0 0-0.1-2.5 3.3-4.2 0 0-2.6 2-2.4 3.7 0.2 1 2 2.9 2 2.9z"/><path class="s" d="m47.4 56.1c0.6-0.6 3.1 1.3 3.1 1.3q0 0-0.1-0.1l6.4 6.3c-1.7-0.6-1.6 0.2-1.4 0.5l-7.3-5.2c0 0-1.2-2.1-0.7-2.8z"/><path class="t" d="m54.9 63c0 0-1.6-0.8-2.9-1.7-1.3-0.9-4.2-3-4.2-3l-0.1-0.5c1.8 1.5 6.4 4.6 6.4 4.6 0 0-1.9-1.7-3.1-2.6-1.2-1-3.4-2.5-3.4-2.5v-0.5c0 0 3.2 2.6 4.6 3.7 1.4 1.2 2.7 2.5 2.7 2.5z"/><path class="t" d="m55.9 63.4c0 0-1.9-1.9-4.2-3.8-2.3-1.9-3.9-3-3.9-3h0.5c0 0 3 2.3 5.2 4.3 2.2 2 2.6 2.4 2.6 2.4z"/><path class="u" d="m47.6 56.2c1-0.7 2.9 1.2 2.9 1.2-4.1-2.2-2.4 1.5-2.4 1.5 0 0-1.3-2.1-0.5-2.7z"/><path class="v" d="m56.9 61.8c-0.7 0.6-0.1 1.8-0.1 1.8l-6.4-6.3c-0.3-0.6-2-3.6-0.4-4.8 1.8-1.4 4.3 2 4.3 2l4.3 7.9c0 0-1-1.1-1.7-0.6z"/><path class="w" d="m53.5 54.6c0.9 1.6 3.6 7 3.6 7-0.3 0.1-0.5 0.4-0.5 0.4 0 0-0.8-0.9-2.3-2.5-1.5-1.5-4.6-5.1-4.6-5.1-0.1-1.1 0.8-1.5 0.8-1.5 0 0 2 2.5 2.6 3.2 0.5 0.6 1.2 1.7 0.8 1.2-0.4-0.4-2.7-2.9-3.1-3.5-0.4-0.5-1.2-0.3-0.9 0.1 0.3 0.4 1.6 2 2.4 3.1 0.8 1.1 4.3 4.4 4.3 4.4 0 0-1.3-2.9-2.7-5.4-1.4-2.5-2.3-3.2-2.3-3.2h0.6c0 0 0.5 0.2 1.3 1.8z"/><path class="w" d="m53 59.7c0 0-2.5-2.7-2.9-3.2l-0.1-0.4c0 0 2.1 2.1 3.1 3.1 1.1 1.1 2.2 2.8 2.2 2.8z"/><path class="x" d="m50.2 52.7c1.7-1.4 4.1 1.8 4.1 1.8 0 0-2.3-2.4-3.8-1.5-1.6 1.1 0 4.4 0 4.4 0 0-2.1-3.4-0.3-4.7z"/><path class="y" d="m58.8 61.3c-0.4 0.3-0.2 1.1-0.2 1.1l-4.3-7.9c0 0-0.4-1.6 0.3-2.2 0.8-0.5 2.3 0.9 2.3 0.9l2.8 8.3c-0.2-0.2-0.6-0.4-0.9-0.2z"/><path class="z" d="m56.9 54.9c0.7 2 1.7 3.9 2.1 5.9-0.4-0.7-0.6-1.4-0.9-2.2-0.3-0.9-0.8-1.8-1.2-2.7-0.3-0.8-0.8-3.2-1.9-3.2q0 0.1 0 0.1c-0.2 0.2 0.1 0.7 0.1 0.9q0.4 0.9 0.8 1.7c0.8 1.6 1.6 3.1 2.3 4.7-0.8-1.7-1.9-3.4-2.8-5.1-0.2-0.6-1.3-2.1-0.6-2.5q0.1-0.1 0.1-0.1c1.2-0.1 1.8 1.6 2 2.5z"/><path class="A" d="m54.9 52.4c1-0.4 2 0.8 2 0.8 0 0-1.1-0.7-1.9-0.5-0.7 0.2-0.6 1.9-0.6 1.9 0 0-0.6-1.9 0.5-2.2z"/><path class="B" d="m58.5 62.2c0 0-3.2-5.4-4.2-7.7 0 0 2.5 3.9 4.2 7.7z"/><path class="C" d="m56.8 63.6c0 0-3.8-3.3-6.3-6.2 0 0 3.2 2.7 6.3 6.2z"/><path class="D" d="m13.8 14.8l-1.1-1.5c-1-1.4 0.1-4 2.5-5.8 2.5-1.8 5.3-2.2 6.4-0.8l1.1 1.4z"/><path class="E" d="m20.2 13.9c-2.5 1.9-5.3 2.2-6.4 0.9-1-1.4 0.1-4 2.5-5.8 2.5-1.9 5.3-2.2 6.4-0.9 1 1.4-0.1 4-2.5 5.8z"/><path class="F" d="m17.6 19.2l-3.3-4.3c-1-1.3 0.1-3.8 2.4-5.5 2.3-1.7 5-2.1 6-0.8l3.2 4.3z"/><path class="G" d="m17.7 19.4l-0.9-1.2c-0.8-1.1 0.4-3.4 2.7-5.1 2.3-1.7 4.9-2.2 5.7-1.1l0.9 1.1z"/><path class="H" d="m18.3 20.7l-1.1-1.5c-1-1.4 0.1-4 2.5-5.8 2.5-1.8 5.3-2.2 6.4-0.8l1.1 1.4z"/><path class="I" d="m24.7 19.8c-2.5 1.8-5.3 2.2-6.4 0.9-1-1.4 0.1-4 2.6-5.8 2.4-1.9 5.2-2.3 6.3-0.9 1 1.4-0.1 4-2.5 5.8z"/><path class="J" d="m14 14.1c0 0-0.5-1.6 2-4.1 0 0-2.7 1.8-2 4.1z"/><path class="J" d="m22 8.1c0 0-1.4-0.8-4.6 0.8 0 0 2.5-2 4.6-0.8z"/><path class="K" d="m18 19.9c0 0-0.5-1.6 1.9-4.3 0 0-2.6 1.9-1.9 4.3z"/><path class="K" d="m18.5 17.9c-0.1 0.3-0.5 0.4-0.5 0.4 0 0-0.1-0.3 0-0.6 0.1-0.3 0.5-0.4 0.5-0.4 0 0 0.1 0.4 0 0.6z"/><path class="K" d="m13.5 14.1c0 0-0.5-1.7 1.9-4.3 0 0-2.6 1.8-1.9 4.3z"/><path class="K" d="m14 12.1c-0.1 0.3-0.5 0.4-0.5 0.4 0 0-0.1-0.4 0-0.6 0.1-0.3 0.5-0.4 0.5-0.4 0 0 0.1 0.3 0 0.6z"/><path class="K" d="m26.6 13.5c0 0-1.5-0.9-4.7 0.7 0 0 2.5-2 4.7-0.7z"/><path class="K" d="m22.1 7.6c0 0-1.5-0.9-4.7 0.7 0 0 2.4-2 4.7-0.7z"/><path class="L" d="m17.7 18.4c-0.2 0-0.3 0-0.5-0.2-0.1-0.1-0.1-0.3 0-0.4 0.1-0.1 0.3 0 0.5 0.1 0.1 0.2 0.1 0.4 0 0.5z"/><path class="M" d="m17.6 18.2q-0.1 0.2-0.3 0c-0.1-0.1-0.1-0.3 0-0.3 0.1-0.1 0.2 0 0.3 0.1 0.1 0.1 0.1 0.2 0 0.2z"/><path class="N" d="m25.1 12.8c-0.1 0.1-0.3 0-0.4-0.1-0.2-0.2-0.2-0.4 0-0.5 0.1-0.1 0.3 0 0.4 0.1 0.1 0.2 0.1 0.4 0 0.5z"/><path class="O" d="m25 12.7c-0.1 0-0.2 0-0.3-0.1q0-0.1 0-0.3c0.1 0 0.2 0 0.3 0.1q0.2 0.1 0 0.3z"/><path class="P" d="m18.6 16.4c-0.2 0.1-0.5 0.1-0.6-0.1-0.1-0.2-0.1-0.5 0.1-0.6 0.2-0.1 0.4-0.1 0.6 0.1 0.1 0.2 0.1 0.5-0.1 0.6z"/><path class="Q" d="m18.5 16.3c-0.1 0.1-0.3 0-0.4-0.1-0.1-0.1-0.1-0.3 0.1-0.4 0.1-0.1 0.3 0 0.4 0.1 0 0.1 0 0.3-0.1 0.4z"/><path class="R" d="m22.9 13.2c-0.2 0.1-0.5 0.1-0.6-0.1-0.2-0.2-0.1-0.5 0.1-0.6 0.1-0.1 0.4-0.1 0.6 0.1 0.1 0.2 0.1 0.4-0.1 0.6z"/><path class="S" d="m22.8 13.1c-0.1 0-0.3 0-0.4-0.1-0.1-0.1-0.1-0.3 0.1-0.4 0.1-0.1 0.3-0.1 0.3 0.1 0.1 0.1 0.1 0.3 0 0.4z"/><path class="T" d="m20.6 14.5c-0.2 0.1-0.5 0.1-0.7-0.1-0.1-0.2-0.1-0.5 0.1-0.6 0.2-0.2 0.5-0.2 0.6 0 0.2 0.2 0.2 0.5 0 0.7z"/><path class="U" d="m20.5 14.3c-0.2 0.1-0.4 0.1-0.5 0-0.1-0.1 0-0.3 0.1-0.4 0.1-0.1 0.3-0.1 0.4 0 0.1 0.1 0.1 0.3 0 0.4z"/><path class="V" d="m13.1 12.4c-0.1 0.1-0.3 0.1-0.4-0.1-0.1-0.1-0.1-0.3 0-0.4 0.1-0.1 0.3-0.1 0.4 0.1 0.1 0.2 0.1 0.4 0 0.4z"/><path class="W" d="m13 12.3c0 0.1-0.2 0.1-0.2 0-0.1-0.1-0.1-0.3 0-0.3 0-0.1 0.2 0 0.2 0.1 0.1 0.1 0.1 0.2 0 0.2z"/><path class="X" d="m20.6 6.9c-0.2 0.1-0.3 0-0.5-0.2-0.1-0.1-0.1-0.3 0-0.4 0.1-0.1 0.3 0 0.5 0.1 0.1 0.2 0.1 0.4 0 0.5z"/><path class="Y" d="m20.5 6.8c-0.1 0-0.2 0-0.3-0.1q-0.2-0.1 0-0.3c0.1-0.1 0.2 0 0.3 0.1q0.2 0.1 0 0.3z"/><path class="Z" d="m14.1 10.5c-0.2 0.1-0.5 0.1-0.6-0.1-0.2-0.2-0.2-0.5 0-0.6 0.2-0.1 0.5-0.1 0.6 0.1 0.2 0.2 0.1 0.4 0 0.6z"/><path class="a0" d="m14 10.4c-0.2 0.1-0.3 0-0.4-0.1-0.1-0.1-0.1-0.3 0-0.4 0.2-0.1 0.3 0 0.4 0.1 0.1 0.1 0.1 0.3 0 0.4z"/><path class="a1" d="m18.4 7.3c-0.2 0.1-0.5 0.1-0.6-0.1-0.2-0.2-0.2-0.5 0-0.6 0.2-0.2 0.5-0.1 0.6 0.1 0.2 0.2 0.1 0.4 0 0.6z"/><path class="a2" d="m18.3 7.1c-0.2 0.1-0.3 0.1-0.4 0-0.1-0.1-0.1-0.3 0-0.4 0.1-0.1 0.3-0.1 0.4 0.1q0.2 0.1 0 0.3z"/><path class="a3" d="m16 8.6c-0.2 0.1-0.5 0.1-0.6-0.1-0.2-0.2-0.1-0.5 0.1-0.7 0.2-0.1 0.5-0.1 0.6 0.1 0.2 0.2 0.1 0.5-0.1 0.7z"/><path class="a4" d="m15.9 8.4c-0.1 0.1-0.3 0.1-0.4 0-0.1-0.1-0.1-0.3 0.1-0.4 0.1-0.1 0.3-0.1 0.4 0 0.1 0.1 0.1 0.3-0.1 0.4z"/><path class="a5" d="m56.9 61.8c0.7-0.5 1.7 0.6 1.7 0.6l3.3 6.1q-0.1 0-0.1 0.1l-5-5c0 0-0.6-1.2 0.1-1.8z"/><path class="a6" d="m56.8 63.6l5 5q-0.2 0-0.3-0.1l-6.1-4.4c-0.2-0.3-0.3-1.1 1.4-0.5z"/><path class="a7" d="m58.6 62.4c0 0-0.2-0.8 0.2-1.1 0.3-0.2 0.7 0 0.9 0.2l2.3 6.7q0 0.1-0.1 0.3z"/><path class="a8" d="m55.4 64.1c0 0-0.6-1.3 1.4-0.5 0 0-1.6-0.5-1.4 0.5z"/><path class="a9" d="m56.8 63.6c0 0-0.7-1.2 0.1-1.8 0.8-0.6 1.7 0.6 1.7 0.6 0 0-1-0.9-1.6-0.4-0.6 0.5-0.2 1.6-0.2 1.6z"/><path class="aa" d="m58.6 62.4c0 0-0.3-0.9 0.3-1.3 0.5-0.2 0.8 0.4 0.8 0.4 0 0-0.4-0.5-0.8-0.2-0.4 0.3-0.3 1.1-0.3 1.1z"/><path class="ab" d="m61.8 68.6c0 0-1.7-1.4-5-5 0 0 4.6 4.4 5 5z"/><path class="ac" d="m61.9 68.5c0 0-2.3-3.9-3.3-6.1 0 0 1.7 2.7 3.3 6.1z"/><path class="ad" d="m24.7 19.8c-2.4 1.8-5.1 2.2-6.1 0.9-1-1.3 0.1-3.8 2.5-5.6 2.3-1.8 5.1-2.2 6.1-0.9 1 1.3-0.2 3.8-2.5 5.6z"/><path class="a7" d="m27.4 14.9l2.8 3.6 26.7 34.7c0 0-1.5-1.4-2.3-0.9-0.7 0.6-0.3 2.2-0.3 2.2v-0.2l-30.9-40.1c1.7-0.6 3.2-0.5 3.8 0.4q0.1 0.1 0.2 0.3z"/><path class="a5" d="m54.3 54.5c0 0-2.5-3.4-4.3-2-1.6 1.2 0.1 4.2 0.4 4.8l-0.1-0.1-30.8-40.1q0.7-0.9 1.8-1.7 1-0.8 2.1-1.2l30.9 40.1z"/><path class="a6" d="m50.4 57.3q0.1 0.1 0.1 0.1c0 0-2.5-1.9-3.1-1.3-0.5 0.7 0.7 2.8 0.7 2.8l-26.2-34.2-3-3.9c-0.7-0.9-0.4-2.3 0.6-3.7l30.8 40.1z"/><path class="K" d="m47 57.5q-0.1-0.1-0.1-0.2l0.2 0.3q-0.1 0-0.1-0.1z"/><path class="K" d="m19.4 17.4q0.2 0.1 0.4 0.3-0.2-0.1-0.4-0.3z"/><path fill-rule="evenodd" class="ae" d="m33.4 35.3q-0.6-0.6-1.2-1.2c-1.7-1.7-8.2-9.4-10-11 1.5 1.8 7.8 9.7 9.3 11.5 3.6 4.2 12.3 15.6 16.2 21.4q-0.2 0-0.3 0.1 0 0.1 0 0.1c-4.2-6.1-13.2-17.9-17.1-22.4-1.8-2.1-8.3-10.1-10-12.2q-0.9-0.7-1.7-1.3-0.1-0.2-0.1-0.5 0.4 0.3 0.8 0.6 0.8 0.6 1.6 1.2c2.4 1.9 9.2 10 11.4 12.1q0.6 0.8 1.1 1.6zm7.8 13c2.2 2.9 6 9.4 5.9 9.3l-0.2-0.3c-2-3.2-4.1-6.4-6.6-9.5-2.1-2.7-4.5-5.3-6.8-7.9l-5-6.5q2.2 2.7 4.5 5.4c2.7 3.2 5.6 6.2 8.2 9.5zm-19.6-28.5q-0.8-0.7-1.5-1.3c-0.2-0.2-0.6-0.5-1-0.8q0.1-0.2 0.2-0.4 0.1 0.1 0.1 0.1 0.2 0.2 0.4 0.3 0.2 0.2 0.5 0.4 0.2 0.2 0.4 0.3c0.3 0.5 0.6 0.9 0.9 1.4z"/><path class="af" d="m41.5 43.4c2.7 3.2 5.1 6.4 7.5 9.7q0.2 0.2 0.3 0.5 0 0.1 0 0.3-0.4-0.6-0.9-1.2c-2.3-3.1-4.6-6.2-7.2-9.2-2.3-2.7-4.8-5.3-7.4-7.8q-0.2-0.2-0.4-0.4-0.5-0.8-1.1-1.6 0 0.1 0.1 0.1 0 0.1 0.1 0.1c3.1 3.1 6.2 6.2 9 9.5z"/><path class="af" d="m48.8 50.5q0.6 0.9 1.3 1.9-0.1 0-0.1 0.1-0.1 0-0.2 0.1c-2-3.3-4.5-6.6-6.9-9.7-1.7-2.1-3.3-4.3-5.2-6.3q-3-3.3-6.3-6.3c-1.7-1.6-8.1-9.1-9.8-10.5-0.3-0.5-0.6-0.9-0.9-1.4 0.9 0.8 1.6 1.4 2 1.8 4.4 3.7 13.5 13.9 17.2 18.3 3.1 3.9 6.2 7.9 8.9 12z"/><path class="af" d="m48.1 46.2q0.1 0.3 0.3 0.5c0.8 1.3 1.8 2.6 2.9 3.7q0 0 0 0.1 0.4 0.5 0.8 1c-0.7-0.5-1.5-1.3-1.9-1.8-1-1.3-2-2.9-3-4.2-3.2-4.6-7.1-9.1-11.1-13.1-2-2.1-8.7-10.2-10.8-12.2-1.3-1.3-2.8-2.6-3.9-4q-0.2-0.3-0.4-0.6 0.1-0.1 0.3-0.2 0 0 0-0.1c0.4 0.8 1.1 1.4 1.7 2 1.6 1.6 7.8 9.3 9.4 10.9 3.3 3.3 6.6 6.6 9.6 10.1q1.1 1.3 2.1 2.6c1.4 1.8 2.8 3.5 4 5.3z"/><path class="af" d="m24.6 15.7q-0.8-0.7-1.5-1.4 0.2-0.1 0.3-0.1 0.1 0 0.1-0.1 0.6 0.9 1.1 1.6z"/><path class="af" d="m33.8 27.8c1 1.2 2.1 2.4 3 3.8q-2.2-2.3-4.4-4.5c-1.2-1.2-7-8.4-8.1-9.5-0.9-0.8-1.8-1.7-2.5-2.6q0.2-0.1 0.4-0.2c1.1 0.9 2.1 2.1 3.2 3.2 1.1 1.1 6.9 8.3 8.1 9.5q0.1 0.1 0.3 0.3z"/><path class="ag" d="m53.5 49.6c0.2 0.8 0.6 2.2-0.2 2.3-0.3 0.1-0.8-0.1-1.2-0.4q-0.4-0.5-0.8-1c0.6 0.5 1.5 1.2 1.9 0.7 0.2-0.4 0.1-1.2-0.1-1.8-0.2-0.6-0.4-1.3-0.7-2l0.4 0.5c0.3 0.6 0.5 1.2 0.7 1.7z"/><path class="ag" d="m23.5 14.1q0.2 0 0.3 0c4.5 4.2 15.9 17.5 20 22.1l1.5 2c-4-4.5-15.1-17.3-20.7-22.5q-0.5-0.7-1.1-1.6z"/><path class="ag" d="m50.3 47.1c-2-1.8-3.3-3.8-4.9-5.8-1.9-2.4-3.9-4.6-6-6.9q-1.2-1.3-2.5-2.7-0.1 0-0.1-0.1c-0.9-1.4-2-2.6-3-3.8q0.2 0.2 0.4 0.4 2.7 2.7 5.3 5.6 3.1 3.3 6 6.9c1.5 1.8 2.8 3.9 4.5 5.6-0.4-1.7-1.5-3.6-2.5-5.3l1.2 1.6q1.2 2.2 1.9 4.4c0.1 0.2-0.1 0.3-0.3 0.1z"/><path class="ag" d="m25.4 14.7q-0.4-0.4-0.8-0.8 0.3-0.1 0.6-0.1 0.3 0.3 0.7 0.7c1.3 1.2 2.4 2.5 3.7 3.7 0.3 0.3 5.4 6.7 5.8 7l0.7 1c-0.7-0.5-6-7-6.5-7.5-1.5-1.3-2.8-2.7-4.2-4z"/><path class="ah" d="m50.2 57.1c0 0-17.9-22.7-30.7-40 0 0 16.6 21.2 30.7 40z"/><path class="ai" d="m54 54c0 0-23.1-29.3-30.6-39.8 0 0 16.9 21.6 30.6 39.8z"/><path class="aj" d="m50.2 57.1c-0.7-1.3-1.9-3.6-0.2-4.8 1.6-1.2 4 1.7 4 1.7l0.3 0.5c0 0-2.5-3.1-4.1-1.8-1.7 1.2 0.3 4.7 0.3 4.7z"/><path class="ak" d="m48.1 58.9c0 0-1.5-2-0.7-2.9 0.8-0.9 2.9 1.1 2.9 1.1l0.2 0.3c0 0-2-1.6-2.8-1-0.8 0.6 0.4 2.5 0.4 2.5z"/><path class="al" d="m54 54c0 0-0.5-1.5 0.6-2 1.2-0.4 2.3 1.2 2.3 1.2 0 0-1.2-1.2-2-0.8-1 0.4-0.6 2.1-0.6 2.1z"/></svg>