<svg version="1.2" xmlns="http://www.w3.org/2000/svg" viewBox="0 0 30 30" width="30" height="30"><style>.a{fill:#fff}.b{fill:#e35555}</style><path class="a" d="m2.8 25.8h1.2v-1c0-0.6-0.5-0.9-1.5-0.9-1 0-1.4 0.2-1.4 1v4.2c0 0.6 0.3 1 0.8 1 0.5 0 0.9-0.2 1.2-0.6l0.3 0.5h0.6c0-0.2 0-0.4 0-0.7v-2.7h-1.4v1h0.2v1c-0.1 0.1-0.2 0.2-0.3 0.2-0.1 0-0.2-0.1-0.2-0.4v-3.1c0-0.3 0.1-0.4 0.2-0.4 0.2 0 0.3 0.1 0.3 0.4zm2.1-1.9c0 0-0.7 3.1-0.7 4.6v1.5h1.1v-1.2h0.5v0.1c0 0.8 0.1 1.1 0.2 1.1h1.1c-0.1-0.2-0.1-0.4-0.1-0.7v-0.8c0-1.5-0.7-4.6-0.7-4.6zm0.5 3.7v-0.3c0-0.4 0.1-2.2 0.2-2.5 0.1 0.3 0.3 2.1 0.3 2.5v0.3zm1.9-3.7v6.1h1.2v-5c0.3 0 0.4 0.4 0.4 1.3v3.7h1.2v-3.7c0-0.9 0.2-1.3 0.5-1.3v3.9c0 0.8 0.1 1.1 0.2 1.1h1.1c-0.1-0.2-0.1-0.4-0.1-0.7v-5.4h-1.1c-0.4 0-0.8 0.4-1.2 0.9-0.3-0.5-0.7-0.9-1.2-0.9zm4.8 0v6.1h2.3v-1.2h-1.1v-1.2h0.8v-1.2h-0.8v-1.3h1.1v-1.2z"/><path class="b" d="m18.9 25.6v-0.9c0-0.6-0.4-0.8-1.4-0.8-1 0-1.4 0.2-1.4 1v1c0 1.1 1.7 1.8 1.7 2.8 0 0.2-0.1 0.4-0.4 0.4-0.2 0-0.3-0.1-0.3-0.4v-0.5h-1v1c0 0.6 0.5 0.9 1.4 0.9 1 0 1.4-0.3 1.4-1v-1.2c0-1.1-1.7-1.8-1.7-2.7 0-0.2 0.1-0.3 0.3-0.3 0.3 0 0.4 0.1 0.4 0.2v0.5zm0.1-1.6v1.1h0.8v4.9h1.2v-4.9h0.9v-1.1zm4.4-0.1c-1 0-1.4 0.2-1.4 1v4.2c0 0.7 0.4 1 1.4 1 1.1 0 1.5-0.3 1.5-1v-4.2c0-0.8-0.4-1-1.5-1zm0 1c0.2 0 0.3 0.1 0.3 0.4v3.4c0 0.2-0.1 0.4-0.3 0.4-0.1 0-0.2-0.2-0.2-0.4v-3.4c0-0.3 0.1-0.4 0.2-0.4zm2.9 0.1h0.2c0.2 0 0.3 0.1 0.3 0.4v1.3c0 0.3-0.1 0.4-0.3 0.4h-0.2zm-1.2-1v6.1h1.2v-1.9h0.2c1.1 0 1.5-0.2 1.5-1v-2.2c0-0.7-0.4-1-1.5-1z"/><path class="a" d="m8.6 6.5h5.8v-3.5c0-2.1-2.5-3.2-7-3.2-5.1 0-7 1-7 3.5v14.5c0 2 1.7 3.5 4.1 3.5 2.4 0 4.4-0.8 5.9-2.1l1.2 1.8h2.9c-0.1-0.6-0.1-1.4-0.1-2.3v-9.3h-6.9v3.5h1.1v3.3c-0.5 0.4-1 0.8-1.4 0.8-0.6 0-1-0.6-1-1.5v-10.7c0-1 0.4-1.5 1.2-1.5 0.7 0 1.2 0.5 1.2 1.5z"/><path class="b" d="m28.6 5.9v-3.2c0-2.1-1.8-2.9-6.6-2.9-4.7 0-6.5 1-6.5 3.5v3.6c0 3.8 8.1 6.3 8.1 9.5 0 0.9-0.6 1.4-1.9 1.4-1.2 0-1.8-0.4-1.8-1.2v-1.7h-4.7v3.5c0 1.9 2.4 2.9 6.8 2.9 5 0 6.9-0.9 6.9-3.5v-4.1c0-3.7-8.5-6-8.5-9.2 0-0.8 0.7-1.2 1.8-1.2 1.1 0 1.7 0.3 1.7 0.9v1.7z"/></svg>